<?xml version="1.0" encoding="iso-8859-1"?>
<!-- Generator: Adobe Illustrator 19.0.0, SVG Export Plug-In . SVG Version: 6.00 Build 0)  -->
<svg version="1.1" id="Layer_1" xmlns="http://www.w3.org/2000/svg" xmlns:xlink="http://www.w3.org/1999/xlink" x="0px" y="0px"
	 viewBox="0 0 511.999 511.999" style="enable-background:new 0 0 511.999 511.999;" xml:space="preserve">
<path style="fill:#DBDDF6;" d="M255.999,132.198L255.999,132.198c-0.001,0-0.001,0-0.003,0
	c-89.963,0-162.892,72.931-162.892,162.893c0,89.965,72.929,162.896,162.892,162.896c0.001,0,0.001,0,0.003,0l0,0
	c89.963-0.003,162.891-72.933,162.893-162.893C418.89,205.128,345.962,132.199,255.999,132.198z"/>
<path style="fill:#C4C8F2;" d="M418.893,295.094c-0.003-89.965-72.931-162.895-162.893-162.896v325.789
	C345.962,457.985,418.89,385.055,418.893,295.094z"/>
<path style="fill:#D5851F;" d="M492.427,267.612c-9.136,0-17.301-6.435-19.151-15.737c-11.543-58.038-44.996-108.106-94.197-140.982
	c-8.976-5.998-11.389-18.136-5.392-27.113c5.998-8.976,18.136-11.391,27.113-5.392c57.882,38.676,97.238,97.58,110.82,165.859
	c2.106,10.588-4.77,20.878-15.359,22.985C494.973,267.489,493.691,267.612,492.427,267.612z"/>
<path style="fill:#ECB45C;" d="M19.571,267.612c-1.264,0-2.546-0.124-3.833-0.379c-10.589-2.106-17.465-12.397-15.359-22.985
	c13.581-68.28,52.939-127.183,110.822-165.859c8.979-5.998,21.116-3.585,27.113,5.392c5.998,8.977,3.584,21.115-5.392,27.113
	c-49.202,32.877-82.656,82.944-94.199,140.982C36.871,261.176,28.706,267.612,19.571,267.612z"/>
<path style="fill:#CE8BD4;" d="M275.544,113.701V73.559h19.547c10.795,0,19.547-8.752,19.547-19.547s-8.752-19.547-19.547-19.547
	h-39.092h-39.094c-10.795,0-19.547,8.752-19.547,19.547s8.752,19.547,19.547,19.547h19.545v40.142
	c-91.439,9.785-162.892,87.396-162.892,181.39c0,100.599,81.843,182.443,182.439,182.443c0.001,0,0.001,0,0.003,0
	c100.595-0.003,182.438-81.844,182.441-182.441C438.437,201.098,366.983,123.486,275.544,113.701z M255.999,438.44
	c-0.001,0-0.001,0-0.003,0c-79.04,0-143.345-64.306-143.345-143.349c0-79.041,64.305-143.346,143.345-143.346
	c0.001,0,0.001,0,0.003,0c79.038,0.003,143.344,64.308,143.346,143.349C399.343,374.135,335.039,438.437,255.999,438.44z"/>
<path style="fill:#BF6AC8;" d="M438.44,295.094c-0.003-93.996-71.457-171.609-162.896-181.393V73.559h19.547
	c10.795,0,19.547-8.752,19.547-19.547s-8.752-19.547-19.547-19.547h-39.092v117.281c79.038,0.003,143.344,64.308,143.346,143.349
	c-0.003,79.04-64.308,143.344-143.346,143.346v39.094C356.596,477.532,438.437,395.692,438.44,295.094z"/>
<path style="fill:#59585C;" d="M340.678,314.723h-84.68c-10.795,0-19.547-8.752-19.547-19.547v-84.678
	c0-10.795,8.752-19.547,19.547-19.547c10.795,0,19.547,8.752,19.547,19.547v65.131h65.133c10.795,0,19.547,8.752,19.547,19.547
	S351.473,314.723,340.678,314.723z"/>
<g>
</g>
<g>
</g>
<g>
</g>
<g>
</g>
<g>
</g>
<g>
</g>
<g>
</g>
<g>
</g>
<g>
</g>
<g>
</g>
<g>
</g>
<g>
</g>
<g>
</g>
<g>
</g>
<g>
</g>
</svg>
